<?xml version="1.0" encoding="UTF-8" standalone="no"?><!DOCTYPE svg PUBLIC "-//W3C//DTD SVG 1.1//EN" "http://www.w3.org/Graphics/SVG/1.1/DTD/svg11.dtd"><svg width="100%" height="100%" viewBox="0 0 3334 3334" version="1.1" xmlns="http://www.w3.org/2000/svg" xmlns:xlink="http://www.w3.org/1999/xlink" xml:space="preserve" xmlns:serif="http://www.serif.com/" style="fill-rule:evenodd;clip-rule:evenodd;stroke-linecap:round;stroke-linejoin:round;"><g id="SVGRepo_iconCarrier"><path d="M1052.386,1116.704l1169.836,-5.593m0,555.556l-1164.243,-0m1164.243,555.556l-1141.872,-0m-247.017,555.556l1666.667,0c153.417,0 277.778,-124.361 277.778,-277.778l0,-1666.667c0,-153.413 -124.361,-277.778 -277.778,-277.778l-1666.667,0c-153.413,0 -277.778,124.365 -277.778,277.778l0,1666.667c0,153.417 124.365,277.778 277.778,277.778Z" style="fill:none;fill-rule:nonzero;stroke:#000;stroke-width:277.78px;"/><path d="M1052.386,1116.704l1239.28,-5.593m0,555.556l-1233.688,-0m1233.688,555.556l-1211.316,-0m-247.017,555.556l1666.667,0c153.417,0 277.778,-124.361 277.778,-277.778l0,-1666.667c0,-153.413 -124.361,-277.778 -277.778,-277.778l-1666.667,0c-153.413,0 -277.778,124.365 -277.778,277.778l0,1666.667c0,153.417 124.365,277.778 277.778,277.778Z" style="fill:none;fill-rule:nonzero;stroke:#fd6330;stroke-width:277.78px;"/></g></svg>