<?xml version="1.0" encoding="UTF-8" standalone="no"?><!DOCTYPE svg PUBLIC "-//W3C//DTD SVG 1.1//EN" "http://www.w3.org/Graphics/SVG/1.1/DTD/svg11.dtd"><svg width="100%" height="100%" viewBox="0 0 8000 4500" version="1.1" xmlns="http://www.w3.org/2000/svg" xmlns:xlink="http://www.w3.org/1999/xlink" xml:space="preserve" xmlns:serif="http://www.serif.com/" style="fill-rule:evenodd;clip-rule:evenodd;stroke-linecap:round;stroke-linejoin:round;stroke-miterlimit:1.5;"><path d="M2659.619,2066.139c-53.32,-62.207 -146.631,-208.839 -146.631,-448.781c0,-244.385 137.745,-1279.691 177.735,-1524.077c4.443,-17.773 13.33,-35.547 31.104,-44.434c13.33,-8.887 31.104,-13.33 48.877,-4.443c168.848,48.877 590.969,408.79 604.299,408.79c199.952,-31.104 1035.306,-39.99 1235.258,0c8.887,0 431.007,-359.913 599.855,-408.79c17.773,-8.887 35.547,-4.443 53.32,4.443c13.33,8.887 26.66,26.66 26.66,44.434c44.434,244.385 182.178,1279.691 182.178,1524.077c0,239.942 -93.311,386.573 -151.075,448.781c-35.547,48.877 -84.424,93.311 -142.188,119.971c-57.764,26.66 -115.528,44.434 -168.848,57.764c-62.207,13.33 -124.414,22.217 -177.735,17.773c-17.773,0 -35.547,13.33 -39.99,35.547c0,22.217 17.773,39.99 35.547,39.99c57.764,4.443 128.858,-4.443 199.952,-22.217c57.764,-13.33 195.508,-71.094 204.395,-75.537c48.877,22.217 191.065,626.516 137.745,1093.07c0,8.887 4.443,17.773 13.33,22.217c8.887,0 17.773,0 22.217,-8.887c17.773,-31.104 31.104,-71.094 31.104,-124.414c0,-22.217 4.443,-48.877 4.443,-75.537c0,-4.443 0,-8.887 4.443,-8.887c4.443,-4.443 8.887,-4.443 13.33,-4.443c53.32,4.443 106.641,13.33 155.518,17.773c151.075,17.773 279.932,84.424 373.243,191.065c79.981,88.867 115.528,271.046 115.528,399.904c0,75.537 -62.207,133.301 -137.745,133.301c-71.094,0 -128.858,-57.764 -133.301,-133.301c-4.443,-48.877 -4.443,-84.424 -57.764,-137.745c-44.434,-44.434 -115.528,-31.104 -159.961,-26.66c-57.764,4.443 -204.395,22.217 -306.593,35.547c-22.217,53.32 -48.877,102.198 -79.981,142.188c4.443,22.217 53.32,386.573 -444.337,386.573c-66.651,0 -133.301,13.33 -186.622,-26.66c-17.773,204.395 213.282,368.8 -342.14,368.8c-293.263,0 -226.612,-137.745 -168.848,-324.366c-31.104,4.443 -62.207,4.443 -93.311,4.443c-35.547,0 -66.651,0 -97.754,-4.443c57.764,186.622 124.414,324.366 -168.848,324.366c-550.978,0 -324.366,-164.405 -342.14,-368.8c-53.32,39.99 -115.528,26.66 -186.622,26.66c-493.214,0 -444.337,-364.357 -444.337,-386.573c-306.593,-373.243 -66.651,-1484.086 0,-1515.19c4.443,4.443 142.188,62.207 204.395,75.537c71.094,17.773 137.745,26.66 195.508,22.217c22.217,0 35.547,-17.773 35.547,-39.99c0,-22.217 -17.773,-35.547 -39.99,-35.547c-53.32,4.443 -111.084,-4.443 -173.292,-17.773c-57.764,-13.33 -115.528,-31.104 -173.292,-57.764c-57.764,-26.66 -106.641,-71.094 -142.188,-119.971Zm702.053,-746.487c-102.198,79.981 -235.499,115.528 -302.149,115.528c-35.547,0 -35.547,48.877 8.887,57.764c44.434,8.887 306.593,-106.641 324.366,-119.971c35.547,-31.104 0,-75.537 -31.104,-53.32Zm697.609,213.282c31.104,-17.773 62.207,-44.434 62.207,-66.651c0,-53.32 -84.424,-62.207 -128.858,-62.207c-48.877,0 -133.301,8.887 -133.301,62.207c0,22.217 31.104,48.877 62.207,66.651c4.443,0 8.887,8.887 8.887,13.33c4.443,8.887 -106.641,93.311 -182.178,93.311c-115.528,0 -128.858,-88.867 -199.952,-97.754c-13.33,-4.443 -26.66,0 -31.104,13.33c-4.443,13.33 -4.443,26.66 8.887,35.547c66.651,44.434 151.075,106.641 222.169,106.641c84.424,0 208.839,-119.971 244.385,-119.971c35.547,0 155.518,119.971 244.385,119.971c71.094,0 151.075,-62.207 222.169,-106.641c8.887,-8.887 13.33,-22.217 8.887,-35.547c-8.887,-13.33 -22.217,-17.773 -35.547,-13.33c-71.094,8.887 -79.981,97.754 -195.508,97.754c-75.537,0 -186.622,-84.424 -186.622,-93.311c0,-4.443 4.443,-13.33 8.887,-13.33Zm853.128,-39.99c71.094,-204.395 -235.499,-311.036 -324.366,-119.971c-8.887,26.66 26.66,57.764 53.32,31.104c71.094,-75.537 226.612,-8.887 213.282,79.981c-4.443,35.547 44.434,44.434 57.764,8.887Zm8.887,-728.713c39.99,66.651 151.075,217.725 279.932,217.725c119.971,0 22.217,-764.26 -8.887,-782.034c-31.104,-17.773 -302.149,510.988 -271.046,564.308Zm-1861.773,0c35.547,-53.32 -239.942,-582.082 -271.046,-564.308c-31.104,17.773 -124.414,782.034 -8.887,782.034c133.301,0 244.385,-151.075 279.932,-217.725Zm933.108,1053.079c-35.547,0 -44.434,-106.641 -48.877,-106.641c-4.443,-4.443 -133.301,22.217 -142.188,31.104c-8.887,13.33 0,213.282 191.065,213.282c186.622,0 195.508,-199.952 186.622,-213.282c-4.443,-8.887 -137.745,-35.547 -142.188,-31.104c-4.443,0 -13.33,106.641 -44.434,106.641Z" style="fill:#cc2900;stroke:#000;stroke-width:19.58px;"/><g transform="matrix(0.851228,0,0,1,175.525551,0)"><g transform="matrix(357.449482,0,0,357.449482,5361.37892,2369.746276)"></g><text x="3639.757px" y="2369.746px" style="font-family:'Hack-BoldItalic', 'Hack', monospace;font-weight:700;font-style:italic;font-size:357.449px;fill:#fff;">Sinergia</text></g><g transform="matrix(0.851228,0,0,1,176.272322,0)"><g transform="matrix(357.449482,0,0,357.449482,5366.398498,2382.567762)"></g><text x="3644.777px" y="2382.568px" style="font-family:'Hack-BoldItalic', 'Hack', monospace;font-weight:700;font-style:italic;font-size:357.449px;">Sinergia</text></g><g transform="matrix(0.851228,0,0,1,-109.4265,0)"><g transform="matrix(417.384103,0,0,417.384103,5311.558195,2923.363583)"></g><text x="4306.412px" y="2923.364px" style="font-family:'Hack-BoldItalic', 'Hack', monospace;font-weight:700;font-style:italic;font-size:417.384px;fill:#fff;">Play</text></g><g transform="matrix(0.851228,0,0,1,-108.186737,-0)"><g transform="matrix(417.384103,0,0,417.384103,5319.891528,2931.696916)"></g><text x="4314.746px" y="2931.697px" style="font-family:'Hack-BoldItalic', 'Hack', monospace;font-weight:700;font-style:italic;font-size:417.384px;">Play</text></g></svg>