<?xml version="1.0" encoding="UTF-8" standalone="no"?><!DOCTYPE svg PUBLIC "-//W3C//DTD SVG 1.1//EN" "http://www.w3.org/Graphics/SVG/1.1/DTD/svg11.dtd"><svg width="100%" height="100%" viewBox="0 0 3334 3334" version="1.1" xmlns="http://www.w3.org/2000/svg" xmlns:xlink="http://www.w3.org/1999/xlink" xml:space="preserve" xmlns:serif="http://www.serif.com/" style="fill-rule:evenodd;clip-rule:evenodd;stroke-linejoin:round;stroke-miterlimit:2;"><g id="SVGRepo_iconCarrier"><path d="M2590.903,265.238l-0.061,362.002l-551.908,-0.01c-132.729,0 -255.355,70.8 -321.734,185.739l-835.356,1446.596l-879.804,0l0,372.338l880.29,0c132.729,0 255.385,-70.808 321.733,-185.759l107.73,-186.578l727.413,-1259.987l551.635,0.012l0.061,362.005c27.122,-19.674 711.88,-515.36 733.511,-531.017l8.919,-6.525l-742.43,-558.813Z" style="fill:#fd6330;fill-rule:nonzero;"/><path d="M1207.364,948.305l106.062,183.724l-214.975,372.119l-213.306,-369.271l-879.801,0l0,-372.353l880.256,0c132.729,0 255.385,70.821 321.764,185.781Z" style="fill:#fd6330;fill-rule:nonzero;"/><path d="M3333.333,2369.663l-742.339,558.886l-0.243,-361.932l-551.756,0c-132.729,0 -255.385,-70.808 -321.765,-185.79l-106.061,-183.727l214.974,-372.101l213.063,369.279l551.544,0l0.243,-362.174c27,19.677 711.758,515.502 733.299,531.157l9.041,6.402Z" style="fill:#fd6330;fill-rule:nonzero;"/></g></svg>