<?xml version="1.0" encoding="UTF-8" standalone="no"?><!DOCTYPE svg PUBLIC "-//W3C//DTD SVG 1.1//EN" "http://www.w3.org/Graphics/SVG/1.1/DTD/svg11.dtd"><svg width="100%" height="100%" viewBox="0 0 3334 3334" version="1.1" xmlns="http://www.w3.org/2000/svg" xmlns:xlink="http://www.w3.org/1999/xlink" xml:space="preserve" xmlns:serif="http://www.serif.com/" style="fill-rule:evenodd;clip-rule:evenodd;stroke-linejoin:round;stroke-miterlimit:2;"><g id="SVGRepo_iconCarrier"><path d="M1131.977,1961.02l215.101,372.571l-36.541,63.33l-107.886,186.636c-66.408,115.017 -189.013,185.935 -321.828,185.935l-880.823,0l0,-372.571l880.335,0l251.642,-435.901Z" style="fill:#fd6330;fill-rule:nonzero;"/><path d="M3333.333,960.425l-9.022,6.613c-21.577,15.665 -706.743,511.573 -734.019,531.261l0,-362.149l-551.863,0l-257.798,446.568l-215.132,-372.358l150.613,-260.876c66.408,-115.017 189.257,-185.935 322.073,-185.935l552.106,0l0,-362.148l743.04,559.025Z" style="fill:#fd6330;fill-rule:nonzero;"/><path d="M655.756,1136.151l-655.756,0l0,-372.602l440.655,0l215.101,372.602Z" style="fill:#fd6330;fill-rule:nonzero;"/><path d="M3333.333,2572.403l-683.978,515.139l-58.818,44.099l0,-146.103l-0.244,-216.046l-124.496,0l-215.131,-372.571l339.626,0l0.244,-362.392c27.032,19.688 712.198,515.81 733.775,531.474l9.022,6.4Z" style="fill:#fd6330;fill-rule:nonzero;"/><path d="M2455.589,3131.641l-428.557,0l-1576.198,-2730.24l428.556,0l1576.199,2730.24Z" style="fill:#fd6330;fill-rule:nonzero;"/></g></svg>